<mxfile host="65bd71144e">
    <diagram id="6xLJ0fW6yrNkSnxBiv3v" name="Page-1">
        <mxGraphModel dx="3066" dy="1895" grid="1" gridSize="10" guides="1" tooltips="1" connect="1" arrows="1" fold="1" page="1" pageScale="1" pageWidth="827" pageHeight="1169" background="#F4F1DE" math="0" shadow="0">
            <root>
                <mxCell id="0"/>
                <mxCell id="1" parent="0"/>
                <mxCell id="30" value="" style="rounded=0;whiteSpace=wrap;html=1;sketch=0;fontColor=#393C56;strokeColor=#E07A5F;fillColor=#FFFFFF;" vertex="1" parent="1">
                    <mxGeometry x="40" y="80" width="760" height="600" as="geometry"/>
                </mxCell>
                <mxCell id="2" value="Nginx&lt;br&gt;(nginx)" style="whiteSpace=wrap;html=1;aspect=fixed;rounded=0;sketch=0;fontColor=#393C56;strokeColor=#E07A5F;fillColor=#F2CC8F;" vertex="1" parent="1">
                    <mxGeometry x="120" y="200" width="120" height="120" as="geometry"/>
                </mxCell>
                <mxCell id="3" value="Laravel&lt;br&gt;(app)" style="whiteSpace=wrap;html=1;aspect=fixed;rounded=0;sketch=0;fontColor=#393C56;strokeColor=#E07A5F;fillColor=#F2CC8F;" vertex="1" parent="1">
                    <mxGeometry x="360" y="200" width="120" height="120" as="geometry"/>
                </mxCell>
                <mxCell id="5" value="MailCatcher&lt;br&gt;(mail)" style="whiteSpace=wrap;html=1;aspect=fixed;rounded=0;sketch=0;fontColor=#393C56;strokeColor=#E07A5F;fillColor=#F2CC8F;" vertex="1" parent="1">
                    <mxGeometry x="600" y="200" width="120" height="120" as="geometry"/>
                </mxCell>
                <mxCell id="6" value="&lt;font color=&quot;#000000&quot;&gt;PostgreSQL&lt;br&gt;(db)&lt;/font&gt;" style="whiteSpace=wrap;html=1;aspect=fixed;rounded=0;sketch=0;strokeColor=#23445d;fillColor=#bac8d3;" vertex="1" parent="1">
                    <mxGeometry x="360" y="440" width="120" height="120" as="geometry"/>
                </mxCell>
                <mxCell id="7" value="&lt;font color=&quot;#000000&quot;&gt;Redis&lt;br&gt;(redis)&lt;/font&gt;" style="whiteSpace=wrap;html=1;aspect=fixed;rounded=0;sketch=0;strokeColor=#ae4132;fillColor=#fad9d5;" vertex="1" parent="1">
                    <mxGeometry x="600" y="440" width="120" height="120" as="geometry"/>
                </mxCell>
                <mxCell id="12" value="" style="endArrow=classic;startArrow=classic;html=1;fontColor=#393C56;strokeColor=#E07A5F;fillColor=#F2CC8F;exitX=1;exitY=1;exitDx=0;exitDy=0;entryX=0;entryY=0;entryDx=0;entryDy=0;" edge="1" parent="1" source="3" target="7">
                    <mxGeometry width="50" height="50" relative="1" as="geometry">
                        <mxPoint x="520" y="420" as="sourcePoint"/>
                        <mxPoint x="570" y="370" as="targetPoint"/>
                    </mxGeometry>
                </mxCell>
                <mxCell id="13" value="" style="endArrow=classic;startArrow=classic;html=1;fontColor=#393C56;strokeColor=#E07A5F;fillColor=#F2CC8F;entryX=0.5;entryY=1;entryDx=0;entryDy=0;exitX=0.5;exitY=0;exitDx=0;exitDy=0;" edge="1" parent="1" source="6" target="3">
                    <mxGeometry width="50" height="50" relative="1" as="geometry">
                        <mxPoint x="400" y="430" as="sourcePoint"/>
                        <mxPoint x="450" y="380" as="targetPoint"/>
                    </mxGeometry>
                </mxCell>
                <mxCell id="14" value="" style="endArrow=classic;startArrow=classic;html=1;fontColor=#393C56;strokeColor=#E07A5F;fillColor=#F2CC8F;exitX=1;exitY=0.5;exitDx=0;exitDy=0;entryX=0;entryY=0.5;entryDx=0;entryDy=0;" edge="1" parent="1" source="2" target="3">
                    <mxGeometry width="50" height="50" relative="1" as="geometry">
                        <mxPoint x="290" y="290" as="sourcePoint"/>
                        <mxPoint x="340" y="240" as="targetPoint"/>
                    </mxGeometry>
                </mxCell>
                <mxCell id="16" value="" style="endArrow=classic;html=1;fontColor=#393C56;strokeColor=#E07A5F;fillColor=#F2CC8F;entryX=0.5;entryY=0;entryDx=0;entryDy=0;" edge="1" parent="1" target="5">
                    <mxGeometry width="50" height="50" relative="1" as="geometry">
                        <mxPoint x="660" y="120" as="sourcePoint"/>
                        <mxPoint x="685" y="110" as="targetPoint"/>
                    </mxGeometry>
                </mxCell>
                <mxCell id="18" value="" style="endArrow=classic;startArrow=classic;html=1;fontColor=#393C56;strokeColor=#E07A5F;fillColor=#F2CC8F;exitX=1;exitY=0.5;exitDx=0;exitDy=0;entryX=0;entryY=0.5;entryDx=0;entryDy=0;" edge="1" parent="1" source="3" target="5">
                    <mxGeometry width="50" height="50" relative="1" as="geometry">
                        <mxPoint x="540" y="290" as="sourcePoint"/>
                        <mxPoint x="590" y="240" as="targetPoint"/>
                    </mxGeometry>
                </mxCell>
                <mxCell id="19" value="" style="endArrow=classic;html=1;fontColor=#393C56;strokeColor=#E07A5F;fillColor=#F2CC8F;entryX=0.5;entryY=0;entryDx=0;entryDy=0;" edge="1" parent="1">
                    <mxGeometry width="50" height="50" relative="1" as="geometry">
                        <mxPoint x="179.5" y="120" as="sourcePoint"/>
                        <mxPoint x="179.5" y="200" as="targetPoint"/>
                    </mxGeometry>
                </mxCell>
                <mxCell id="20" value="" style="endArrow=classic;html=1;fontColor=#393C56;strokeColor=#E07A5F;fillColor=#F2CC8F;entryX=0.5;entryY=1;entryDx=0;entryDy=0;" edge="1" parent="1" target="6">
                    <mxGeometry width="50" height="50" relative="1" as="geometry">
                        <mxPoint x="420" y="640" as="sourcePoint"/>
                        <mxPoint x="419.5" y="730" as="targetPoint"/>
                    </mxGeometry>
                </mxCell>
                <mxCell id="21" value="" style="endArrow=classic;html=1;fontColor=#393C56;strokeColor=#E07A5F;fillColor=#F2CC8F;entryX=0.5;entryY=1;entryDx=0;entryDy=0;" edge="1" parent="1">
                    <mxGeometry width="50" height="50" relative="1" as="geometry">
                        <mxPoint x="660" y="640" as="sourcePoint"/>
                        <mxPoint x="660" y="560" as="targetPoint"/>
                    </mxGeometry>
                </mxCell>
                <mxCell id="22" value="80" style="text;html=1;strokeColor=none;fillColor=none;align=center;verticalAlign=middle;whiteSpace=wrap;rounded=0;sketch=0;fontColor=#393C56;" vertex="1" parent="1">
                    <mxGeometry x="180" y="160" width="40" height="20" as="geometry"/>
                </mxCell>
                <mxCell id="23" value="1080" style="text;html=1;strokeColor=none;fillColor=none;align=center;verticalAlign=middle;whiteSpace=wrap;rounded=0;sketch=0;fontColor=#393C56;" vertex="1" parent="1">
                    <mxGeometry x="660" y="160" width="40" height="20" as="geometry"/>
                </mxCell>
                <mxCell id="24" value="9000" style="text;html=1;strokeColor=none;fillColor=none;align=center;verticalAlign=middle;whiteSpace=wrap;rounded=0;sketch=0;fontColor=#393C56;" vertex="1" parent="1">
                    <mxGeometry x="280" y="240" width="40" height="20" as="geometry"/>
                </mxCell>
                <mxCell id="25" value="1025" style="text;html=1;strokeColor=none;fillColor=none;align=center;verticalAlign=middle;whiteSpace=wrap;rounded=0;sketch=0;fontColor=#393C56;" vertex="1" parent="1">
                    <mxGeometry x="520" y="240" width="40" height="20" as="geometry"/>
                </mxCell>
                <mxCell id="26" value="5432" style="text;html=1;strokeColor=none;fillColor=none;align=center;verticalAlign=middle;whiteSpace=wrap;rounded=0;sketch=0;fontColor=#393C56;" vertex="1" parent="1">
                    <mxGeometry x="420" y="400" width="40" height="20" as="geometry"/>
                </mxCell>
                <mxCell id="27" value="6379" style="text;html=1;strokeColor=none;fillColor=none;align=center;verticalAlign=middle;whiteSpace=wrap;rounded=0;sketch=0;fontColor=#393C56;" vertex="1" parent="1">
                    <mxGeometry x="580" y="400" width="40" height="20" as="geometry"/>
                </mxCell>
                <mxCell id="28" value="5432" style="text;html=1;strokeColor=none;fillColor=none;align=center;verticalAlign=middle;whiteSpace=wrap;rounded=0;sketch=0;fontColor=#393C56;" vertex="1" parent="1">
                    <mxGeometry x="420" y="584.5" width="40" height="20" as="geometry"/>
                </mxCell>
                <mxCell id="29" value="6379" style="text;html=1;strokeColor=none;fillColor=none;align=center;verticalAlign=middle;whiteSpace=wrap;rounded=0;sketch=0;fontColor=#393C56;" vertex="1" parent="1">
                    <mxGeometry x="660" y="585" width="40" height="20" as="geometry"/>
                </mxCell>
            </root>
        </mxGraphModel>
    </diagram>
</mxfile>